<svg xmlns="http://www.w3.org/2000/svg" xmlns:xlink="http://www.w3.org/1999/xlink" width="600" height="400" viewBox="0 0 2400 1600">
<defs>
  <clipPath id="clip180">
    <rect x="0" y="0" width="2400" height="1600"></rect>
  </clipPath>
</defs>
<path clip-path="url(#clip180)" d="M0 1600 L2400 1600 L2400 0 L0 0  Z" fill="#ffffff" fill-rule="evenodd" fill-opacity="1"></path>
<defs>
  <clipPath id="clip181">
    <rect x="480" y="0" width="1681" height="1600"></rect>
  </clipPath>
</defs>
<path clip-path="url(#clip180)" d="M112.177 1486.45 L2352.76 1486.45 L2352.76 47.2441 L112.177 47.2441  Z" fill="#ffffff" fill-rule="evenodd" fill-opacity="1"></path>
<defs>
  <clipPath id="clip182">
    <rect x="112" y="47" width="2242" height="1440"></rect>
  </clipPath>
</defs>
<polyline clip-path="url(#clip182)" style="stroke:#000000; stroke-linecap:round; stroke-linejoin:round; stroke-width:2; stroke-opacity:0.1; fill:none" points="175.59,1486.45 175.59,47.2441 "></polyline>
<polyline clip-path="url(#clip182)" style="stroke:#000000; stroke-linecap:round; stroke-linejoin:round; stroke-width:2; stroke-opacity:0.1; fill:none" points="704.028,1486.45 704.028,47.2441 "></polyline>
<polyline clip-path="url(#clip182)" style="stroke:#000000; stroke-linecap:round; stroke-linejoin:round; stroke-width:2; stroke-opacity:0.1; fill:none" points="1232.47,1486.45 1232.47,47.2441 "></polyline>
<polyline clip-path="url(#clip182)" style="stroke:#000000; stroke-linecap:round; stroke-linejoin:round; stroke-width:2; stroke-opacity:0.1; fill:none" points="1760.9,1486.45 1760.9,47.2441 "></polyline>
<polyline clip-path="url(#clip182)" style="stroke:#000000; stroke-linecap:round; stroke-linejoin:round; stroke-width:2; stroke-opacity:0.1; fill:none" points="2289.34,1486.45 2289.34,47.2441 "></polyline>
<polyline clip-path="url(#clip180)" style="stroke:#000000; stroke-linecap:round; stroke-linejoin:round; stroke-width:4; stroke-opacity:1; fill:none" points="112.177,1486.45 2352.76,1486.45 "></polyline>
<polyline clip-path="url(#clip180)" style="stroke:#000000; stroke-linecap:round; stroke-linejoin:round; stroke-width:4; stroke-opacity:1; fill:none" points="175.59,1486.45 175.59,1467.55 "></polyline>
<polyline clip-path="url(#clip180)" style="stroke:#000000; stroke-linecap:round; stroke-linejoin:round; stroke-width:4; stroke-opacity:1; fill:none" points="704.028,1486.45 704.028,1467.55 "></polyline>
<polyline clip-path="url(#clip180)" style="stroke:#000000; stroke-linecap:round; stroke-linejoin:round; stroke-width:4; stroke-opacity:1; fill:none" points="1232.47,1486.45 1232.47,1467.55 "></polyline>
<polyline clip-path="url(#clip180)" style="stroke:#000000; stroke-linecap:round; stroke-linejoin:round; stroke-width:4; stroke-opacity:1; fill:none" points="1760.9,1486.45 1760.9,1467.55 "></polyline>
<polyline clip-path="url(#clip180)" style="stroke:#000000; stroke-linecap:round; stroke-linejoin:round; stroke-width:4; stroke-opacity:1; fill:none" points="2289.34,1486.45 2289.34,1467.55 "></polyline>
<path clip-path="url(#clip180)" d="M152.974 1517.37 Q149.363 1517.37 147.534 1520.93 Q145.729 1524.47 145.729 1531.6 Q145.729 1538.71 147.534 1542.27 Q149.363 1545.82 152.974 1545.82 Q156.608 1545.82 158.414 1542.27 Q160.243 1538.71 160.243 1531.6 Q160.243 1524.47 158.414 1520.93 Q156.608 1517.37 152.974 1517.37 M152.974 1513.66 Q158.784 1513.66 161.84 1518.27 Q164.919 1522.85 164.919 1531.6 Q164.919 1540.33 161.84 1544.94 Q158.784 1549.52 152.974 1549.52 Q147.164 1549.52 144.085 1544.94 Q141.03 1540.33 141.03 1531.6 Q141.03 1522.85 144.085 1518.27 Q147.164 1513.66 152.974 1513.66 Z" fill="#000000" fill-rule="nonzero" fill-opacity="1"></path><path clip-path="url(#clip180)" d="M173.136 1542.97 L178.02 1542.97 L178.02 1548.85 L173.136 1548.85 L173.136 1542.97 Z" fill="#000000" fill-rule="nonzero" fill-opacity="1"></path><path clip-path="url(#clip180)" d="M198.205 1517.37 Q194.594 1517.37 192.766 1520.93 Q190.96 1524.47 190.96 1531.6 Q190.96 1538.71 192.766 1542.27 Q194.594 1545.82 198.205 1545.82 Q201.84 1545.82 203.645 1542.27 Q205.474 1538.71 205.474 1531.6 Q205.474 1524.47 203.645 1520.93 Q201.84 1517.37 198.205 1517.37 M198.205 1513.66 Q204.016 1513.66 207.071 1518.27 Q210.15 1522.85 210.15 1531.6 Q210.15 1540.33 207.071 1544.94 Q204.016 1549.52 198.205 1549.52 Q192.395 1549.52 189.317 1544.94 Q186.261 1540.33 186.261 1531.6 Q186.261 1522.85 189.317 1518.27 Q192.395 1513.66 198.205 1513.66 Z" fill="#000000" fill-rule="nonzero" fill-opacity="1"></path><path clip-path="url(#clip180)" d="M675.764 1544.91 L692.084 1544.91 L692.084 1548.85 L670.139 1548.85 L670.139 1544.91 Q672.801 1542.16 677.385 1537.53 Q681.991 1532.88 683.172 1531.53 Q685.417 1529.01 686.297 1527.27 Q687.2 1525.51 687.2 1523.82 Q687.2 1521.07 685.255 1519.33 Q683.334 1517.6 680.232 1517.6 Q678.033 1517.6 675.579 1518.36 Q673.149 1519.13 670.371 1520.68 L670.371 1515.95 Q673.195 1514.82 675.649 1514.24 Q678.102 1513.66 680.139 1513.66 Q685.51 1513.66 688.704 1516.35 Q691.899 1519.03 691.899 1523.52 Q691.899 1525.65 691.088 1527.57 Q690.301 1529.47 688.195 1532.07 Q687.616 1532.74 684.514 1535.95 Q681.413 1539.15 675.764 1544.91 Z" fill="#000000" fill-rule="nonzero" fill-opacity="1"></path><path clip-path="url(#clip180)" d="M701.899 1542.97 L706.783 1542.97 L706.783 1548.85 L701.899 1548.85 L701.899 1542.97 Z" fill="#000000" fill-rule="nonzero" fill-opacity="1"></path><path clip-path="url(#clip180)" d="M717.014 1514.29 L735.371 1514.29 L735.371 1518.22 L721.297 1518.22 L721.297 1526.7 Q722.315 1526.35 723.334 1526.19 Q724.352 1526 725.371 1526 Q731.158 1526 734.537 1529.17 Q737.917 1532.34 737.917 1537.76 Q737.917 1543.34 734.445 1546.44 Q730.972 1549.52 724.653 1549.52 Q722.477 1549.52 720.209 1549.15 Q717.963 1548.78 715.556 1548.04 L715.556 1543.34 Q717.639 1544.47 719.861 1545.03 Q722.084 1545.58 724.56 1545.58 Q728.565 1545.58 730.903 1543.48 Q733.241 1541.37 733.241 1537.76 Q733.241 1534.15 730.903 1532.04 Q728.565 1529.94 724.56 1529.94 Q722.685 1529.94 720.81 1530.35 Q718.959 1530.77 717.014 1531.65 L717.014 1514.29 Z" fill="#000000" fill-rule="nonzero" fill-opacity="1"></path><path clip-path="url(#clip180)" d="M1199.63 1514.29 L1217.99 1514.29 L1217.99 1518.22 L1203.91 1518.22 L1203.91 1526.7 Q1204.93 1526.35 1205.95 1526.19 Q1206.97 1526 1207.99 1526 Q1213.77 1526 1217.15 1529.17 Q1220.53 1532.34 1220.53 1537.76 Q1220.53 1543.34 1217.06 1546.44 Q1213.59 1549.52 1207.27 1549.52 Q1205.09 1549.52 1202.83 1549.15 Q1200.58 1548.78 1198.17 1548.04 L1198.17 1543.34 Q1200.26 1544.47 1202.48 1545.03 Q1204.7 1545.58 1207.18 1545.58 Q1211.18 1545.58 1213.52 1543.48 Q1215.86 1541.37 1215.86 1537.76 Q1215.86 1534.15 1213.52 1532.04 Q1211.18 1529.94 1207.18 1529.94 Q1205.3 1529.94 1203.43 1530.35 Q1201.58 1530.77 1199.63 1531.65 L1199.63 1514.29 Z" fill="#000000" fill-rule="nonzero" fill-opacity="1"></path><path clip-path="url(#clip180)" d="M1229.75 1542.97 L1234.63 1542.97 L1234.63 1548.85 L1229.75 1548.85 L1229.75 1542.97 Z" fill="#000000" fill-rule="nonzero" fill-opacity="1"></path><path clip-path="url(#clip180)" d="M1254.82 1517.37 Q1251.2 1517.37 1249.38 1520.93 Q1247.57 1524.47 1247.57 1531.6 Q1247.57 1538.71 1249.38 1542.27 Q1251.2 1545.82 1254.82 1545.82 Q1258.45 1545.82 1260.26 1542.27 Q1262.08 1538.71 1262.08 1531.6 Q1262.08 1524.47 1260.26 1520.93 Q1258.45 1517.37 1254.82 1517.37 M1254.82 1513.66 Q1260.63 1513.66 1263.68 1518.27 Q1266.76 1522.85 1266.76 1531.6 Q1266.76 1540.33 1263.68 1544.94 Q1260.63 1549.52 1254.82 1549.52 Q1249.01 1549.52 1245.93 1544.94 Q1242.87 1540.33 1242.87 1531.6 Q1242.87 1522.85 1245.93 1518.27 Q1249.01 1513.66 1254.82 1513.66 Z" fill="#000000" fill-rule="nonzero" fill-opacity="1"></path><path clip-path="url(#clip180)" d="M1727.22 1514.29 L1749.45 1514.29 L1749.45 1516.28 L1736.9 1548.85 L1732.02 1548.85 L1743.82 1518.22 L1727.22 1518.22 L1727.22 1514.29 Z" fill="#000000" fill-rule="nonzero" fill-opacity="1"></path><path clip-path="url(#clip180)" d="M1758.57 1542.97 L1763.45 1542.97 L1763.45 1548.85 L1758.57 1548.85 L1758.57 1542.97 Z" fill="#000000" fill-rule="nonzero" fill-opacity="1"></path><path clip-path="url(#clip180)" d="M1773.68 1514.29 L1792.04 1514.29 L1792.04 1518.22 L1777.97 1518.22 L1777.97 1526.7 Q1778.98 1526.35 1780 1526.19 Q1781.02 1526 1782.04 1526 Q1787.83 1526 1791.21 1529.17 Q1794.59 1532.34 1794.59 1537.76 Q1794.59 1543.34 1791.11 1546.44 Q1787.64 1549.52 1781.32 1549.52 Q1779.15 1549.52 1776.88 1549.15 Q1774.63 1548.78 1772.22 1548.04 L1772.22 1543.34 Q1774.31 1544.47 1776.53 1545.03 Q1778.75 1545.58 1781.23 1545.58 Q1785.23 1545.58 1787.57 1543.48 Q1789.91 1541.37 1789.91 1537.76 Q1789.91 1534.15 1787.57 1532.04 Q1785.23 1529.94 1781.23 1529.94 Q1779.35 1529.94 1777.48 1530.35 Q1775.63 1530.77 1773.68 1531.65 L1773.68 1514.29 Z" fill="#000000" fill-rule="nonzero" fill-opacity="1"></path><path clip-path="url(#clip180)" d="M2241.42 1544.91 L2249.05 1544.91 L2249.05 1518.55 L2240.74 1520.21 L2240.74 1515.95 L2249.01 1514.29 L2253.68 1514.29 L2253.68 1544.91 L2261.32 1544.91 L2261.32 1548.85 L2241.42 1548.85 L2241.42 1544.91 Z" fill="#000000" fill-rule="nonzero" fill-opacity="1"></path><path clip-path="url(#clip180)" d="M2280.77 1517.37 Q2277.16 1517.37 2275.33 1520.93 Q2273.52 1524.47 2273.52 1531.6 Q2273.52 1538.71 2275.33 1542.27 Q2277.16 1545.82 2280.77 1545.82 Q2284.4 1545.82 2286.21 1542.27 Q2288.04 1538.71 2288.04 1531.6 Q2288.04 1524.47 2286.21 1520.93 Q2284.4 1517.37 2280.77 1517.37 M2280.77 1513.66 Q2286.58 1513.66 2289.63 1518.27 Q2292.71 1522.85 2292.71 1531.6 Q2292.71 1540.33 2289.63 1544.94 Q2286.58 1549.52 2280.77 1549.52 Q2274.96 1549.52 2271.88 1544.94 Q2268.82 1540.33 2268.82 1531.6 Q2268.82 1522.85 2271.88 1518.27 Q2274.96 1513.66 2280.77 1513.66 Z" fill="#000000" fill-rule="nonzero" fill-opacity="1"></path><path clip-path="url(#clip180)" d="M2300.93 1542.97 L2305.81 1542.97 L2305.81 1548.85 L2300.93 1548.85 L2300.93 1542.97 Z" fill="#000000" fill-rule="nonzero" fill-opacity="1"></path><path clip-path="url(#clip180)" d="M2326 1517.37 Q2322.39 1517.37 2320.56 1520.93 Q2318.75 1524.47 2318.75 1531.6 Q2318.75 1538.71 2320.56 1542.27 Q2322.39 1545.82 2326 1545.82 Q2329.63 1545.82 2331.44 1542.27 Q2333.27 1538.71 2333.27 1531.6 Q2333.27 1524.47 2331.44 1520.93 Q2329.63 1517.37 2326 1517.37 M2326 1513.66 Q2331.81 1513.66 2334.86 1518.27 Q2337.94 1522.85 2337.94 1531.6 Q2337.94 1540.33 2334.86 1544.94 Q2331.81 1549.52 2326 1549.52 Q2320.19 1549.52 2317.11 1544.94 Q2314.05 1540.33 2314.05 1531.6 Q2314.05 1522.85 2317.11 1518.27 Q2320.19 1513.66 2326 1513.66 Z" fill="#000000" fill-rule="nonzero" fill-opacity="1"></path><polyline clip-path="url(#clip182)" style="stroke:#000000; stroke-linecap:round; stroke-linejoin:round; stroke-width:2; stroke-opacity:0.1; fill:none" points="112.177,1445.72 2352.76,1445.72 "></polyline>
<polyline clip-path="url(#clip182)" style="stroke:#000000; stroke-linecap:round; stroke-linejoin:round; stroke-width:2; stroke-opacity:0.1; fill:none" points="112.177,1174.17 2352.76,1174.17 "></polyline>
<polyline clip-path="url(#clip182)" style="stroke:#000000; stroke-linecap:round; stroke-linejoin:round; stroke-width:2; stroke-opacity:0.1; fill:none" points="112.177,902.62 2352.76,902.62 "></polyline>
<polyline clip-path="url(#clip182)" style="stroke:#000000; stroke-linecap:round; stroke-linejoin:round; stroke-width:2; stroke-opacity:0.1; fill:none" points="112.177,631.072 2352.76,631.072 "></polyline>
<polyline clip-path="url(#clip182)" style="stroke:#000000; stroke-linecap:round; stroke-linejoin:round; stroke-width:2; stroke-opacity:0.1; fill:none" points="112.177,359.524 2352.76,359.524 "></polyline>
<polyline clip-path="url(#clip182)" style="stroke:#000000; stroke-linecap:round; stroke-linejoin:round; stroke-width:2; stroke-opacity:0.1; fill:none" points="112.177,87.9763 2352.76,87.9763 "></polyline>
<polyline clip-path="url(#clip180)" style="stroke:#000000; stroke-linecap:round; stroke-linejoin:round; stroke-width:4; stroke-opacity:1; fill:none" points="112.177,1486.45 112.177,47.2441 "></polyline>
<polyline clip-path="url(#clip180)" style="stroke:#000000; stroke-linecap:round; stroke-linejoin:round; stroke-width:4; stroke-opacity:1; fill:none" points="112.177,1445.72 131.075,1445.72 "></polyline>
<polyline clip-path="url(#clip180)" style="stroke:#000000; stroke-linecap:round; stroke-linejoin:round; stroke-width:4; stroke-opacity:1; fill:none" points="112.177,1174.17 131.075,1174.17 "></polyline>
<polyline clip-path="url(#clip180)" style="stroke:#000000; stroke-linecap:round; stroke-linejoin:round; stroke-width:4; stroke-opacity:1; fill:none" points="112.177,902.62 131.075,902.62 "></polyline>
<polyline clip-path="url(#clip180)" style="stroke:#000000; stroke-linecap:round; stroke-linejoin:round; stroke-width:4; stroke-opacity:1; fill:none" points="112.177,631.072 131.075,631.072 "></polyline>
<polyline clip-path="url(#clip180)" style="stroke:#000000; stroke-linecap:round; stroke-linejoin:round; stroke-width:4; stroke-opacity:1; fill:none" points="112.177,359.524 131.075,359.524 "></polyline>
<polyline clip-path="url(#clip180)" style="stroke:#000000; stroke-linecap:round; stroke-linejoin:round; stroke-width:4; stroke-opacity:1; fill:none" points="112.177,87.9763 131.075,87.9763 "></polyline>
<path clip-path="url(#clip180)" d="M64.2328 1431.51 Q60.6217 1431.51 58.793 1435.08 Q56.9875 1438.62 56.9875 1445.75 Q56.9875 1452.86 58.793 1456.42 Q60.6217 1459.96 64.2328 1459.96 Q67.867 1459.96 69.6726 1456.42 Q71.5013 1452.86 71.5013 1445.75 Q71.5013 1438.62 69.6726 1435.08 Q67.867 1431.51 64.2328 1431.51 M64.2328 1427.81 Q70.0429 1427.81 73.0985 1432.42 Q76.1772 1437 76.1772 1445.75 Q76.1772 1454.48 73.0985 1459.08 Q70.0429 1463.67 64.2328 1463.67 Q58.4226 1463.67 55.344 1459.08 Q52.2884 1454.48 52.2884 1445.75 Q52.2884 1437 55.344 1432.42 Q58.4226 1427.81 64.2328 1427.81 Z" fill="#000000" fill-rule="nonzero" fill-opacity="1"></path><path clip-path="url(#clip180)" d="M56.2699 1187.51 L63.9087 1187.51 L63.9087 1161.15 L55.5986 1162.81 L55.5986 1158.55 L63.8624 1156.89 L68.5383 1156.89 L68.5383 1187.51 L76.1772 1187.51 L76.1772 1191.45 L56.2699 1191.45 L56.2699 1187.51 Z" fill="#000000" fill-rule="nonzero" fill-opacity="1"></path><path clip-path="url(#clip180)" d="M59.8578 915.965 L76.1772 915.965 L76.1772 919.9 L54.2328 919.9 L54.2328 915.965 Q56.8949 913.21 61.4782 908.581 Q66.0846 903.928 67.2652 902.585 Q69.5105 900.062 70.3902 898.326 Q71.2929 896.567 71.2929 894.877 Q71.2929 892.122 69.3485 890.386 Q67.4272 888.65 64.3254 888.65 Q62.1263 888.65 59.6726 889.414 Q57.2421 890.178 54.4643 891.729 L54.4643 887.007 Q57.2884 885.872 59.7421 885.294 Q62.1958 884.715 64.2328 884.715 Q69.6031 884.715 72.7976 887.4 Q75.992 890.085 75.992 894.576 Q75.992 896.706 75.1818 898.627 Q74.3948 900.525 72.2883 903.118 Q71.7096 903.789 68.6078 907.006 Q65.5059 910.201 59.8578 915.965 Z" fill="#000000" fill-rule="nonzero" fill-opacity="1"></path><path clip-path="url(#clip180)" d="M69.0476 629.718 Q72.404 630.435 74.279 632.704 Q76.1772 634.972 76.1772 638.306 Q76.1772 643.422 72.6587 646.222 Q69.1402 649.023 62.6587 649.023 Q60.4828 649.023 58.168 648.584 Q55.8764 648.167 53.4227 647.31 L53.4227 642.797 Q55.3671 643.931 57.6819 644.509 Q59.9967 645.088 62.5198 645.088 Q66.918 645.088 69.2096 643.352 Q71.5244 641.616 71.5244 638.306 Q71.5244 635.25 69.3717 633.537 Q67.242 631.801 63.4226 631.801 L59.3949 631.801 L59.3949 627.959 L63.6078 627.959 Q67.0569 627.959 68.8855 626.593 Q70.7142 625.204 70.7142 622.611 Q70.7142 619.949 68.8161 618.537 Q66.9411 617.102 63.4226 617.102 Q61.5013 617.102 59.3023 617.519 Q57.1032 617.936 54.4643 618.815 L54.4643 614.649 Q57.1264 613.908 59.4412 613.537 Q61.7791 613.167 63.8393 613.167 Q69.1633 613.167 72.2652 615.598 Q75.367 618.005 75.367 622.125 Q75.367 624.996 73.7235 626.986 Q72.08 628.954 69.0476 629.718 Z" fill="#000000" fill-rule="nonzero" fill-opacity="1"></path><path clip-path="url(#clip180)" d="M66.5939 346.318 L54.7884 364.767 L66.5939 364.767 L66.5939 346.318 M65.367 342.244 L71.2466 342.244 L71.2466 364.767 L76.1772 364.767 L76.1772 368.656 L71.2466 368.656 L71.2466 376.804 L66.5939 376.804 L66.5939 368.656 L50.9921 368.656 L50.9921 364.142 L65.367 342.244 Z" fill="#000000" fill-rule="nonzero" fill-opacity="1"></path><path clip-path="url(#clip180)" d="M55.2745 70.6963 L73.6309 70.6963 L73.6309 74.6314 L59.5569 74.6314 L59.5569 83.1036 Q60.5754 82.7564 61.5939 82.5944 Q62.6124 82.4092 63.6309 82.4092 Q69.418 82.4092 72.7976 85.5805 Q76.1772 88.7517 76.1772 94.1684 Q76.1772 99.747 72.705 102.849 Q69.2328 105.928 62.9134 105.928 Q60.7374 105.928 58.4689 105.557 Q56.2236 105.187 53.8162 104.446 L53.8162 99.747 Q55.8995 100.881 58.1217 101.437 Q60.3439 101.992 62.8208 101.992 Q66.8254 101.992 69.1633 99.8859 Q71.5013 97.7795 71.5013 94.1684 Q71.5013 90.5573 69.1633 88.4508 Q66.8254 86.3443 62.8208 86.3443 Q60.9458 86.3443 59.0708 86.761 Q57.2189 87.1777 55.2745 88.0573 L55.2745 70.6963 Z" fill="#000000" fill-rule="nonzero" fill-opacity="1"></path><polyline clip-path="url(#clip182)" style="stroke:#009af9; stroke-linecap:round; stroke-linejoin:round; stroke-width:16; stroke-opacity:1; fill:none" points="175.59,1445.72 249.448,1310.56 319.014,1197.33 384.562,1104.52 446.367,1030.6 504.701,974.037 559.84,933.311 612.056,906.897 661.625,893.27 708.819,890.904 753.913,898.275 797.18,913.858 838.896,936.127 879.333,963.557 918.765,994.625 957.467,1027.8 995.713,1061.57 1033.77,1094.4 1071.73,1125.34 1109.39,1154.24 1146.51,1181.05 1182.87,1205.7 1218.24,1228.15 1252.39,1248.33 1285.1,1266.19 1316.14,1281.66 1345.27,1294.68 1372.27,1305.2 1396.91,1313.16 1418.97,1318.5 1438.21,1321.17 1454.4,1321.09 1467.32,1318.22 1476.75,1312.49 1482.47,1303.87 1484.6,1292.43 1483.46,1278.35 1479.37,1261.8 1472.65,1242.97 1463.61,1222.03 1452.58,1199.15 1439.87,1174.51 1425.81,1148.29 1410.72,1120.66 1394.91,1091.8 1378.7,1061.88 1362.42,1031.09 1346.38,999.585 1330.91,967.557 1316.32,935.176 1302.92,902.62 1291,870.044 1280.54,837.527 1271.52,805.127 1263.88,772.903 1257.58,740.913 1252.58,709.217 1248.82,677.873 1246.27,646.939 1244.87,616.475 1244.59,586.538 1245.36,557.188 1247.16,528.483 1249.93,500.482 1253.64,473.244 1258.22,446.827 1263.64,421.289 1269.85,396.691 1276.85,373.1 1284.66,350.605 1293.34,329.292 1302.94,309.25 1313.49,290.567 1325.05,273.331 1337.66,257.629 1351.37,243.551 1366.21,231.183 1382.24,220.613 1399.51,211.931 1418.05,205.223 1437.92,200.578 1459.16,198.084 1481.82,197.828 1505.93,199.899 1531.56,204.346 1558.83,210.784 1587.93,218.541 1619.04,226.943 1652.34,235.316 1688.01,242.985 1726.24,249.276 1767.21,253.513 1811.1,255.024 1858.1,253.132 1908.38,247.164 1962.13,236.445 2019.54,220.3 2080.78,198.056 2146.04,169.037 2215.5,132.568 2289.34,87.9763 "></polyline>
<polyline clip-path="url(#clip182)" style="stroke:#000000; stroke-linecap:round; stroke-linejoin:round; stroke-width:4; stroke-opacity:1; fill:none" points="175.59,1445.72 598.34,631.072 1021.09,1174.17 1655.22,1445.72 1232.47,902.62 1232.47,359.524 1443.84,87.9763 1866.59,359.524 2289.34,87.9763 "></polyline>
<path clip-path="url(#clip182)" d="M175.59 1461.72 L164.278 1457.03 L159.59 1445.72 L164.278 1434.4 L175.59 1429.72 L186.902 1434.4 L191.59 1445.72 L186.902 1457.03 Z" fill="#000000" fill-rule="evenodd" fill-opacity="1" stroke="none"></path>
<path clip-path="url(#clip182)" d="M598.34 647.072 L587.028 642.384 L582.34 631.072 L587.028 619.76 L598.34 615.072 L609.652 619.76 L614.34 631.072 L609.652 642.384 Z" fill="#000000" fill-rule="evenodd" fill-opacity="1" stroke="none"></path>
<path clip-path="url(#clip182)" d="M1021.09 1190.17 L1009.78 1185.48 L1005.09 1174.17 L1009.78 1162.86 L1021.09 1158.17 L1032.4 1162.86 L1037.09 1174.17 L1032.4 1185.48 Z" fill="#000000" fill-rule="evenodd" fill-opacity="1" stroke="none"></path>
<path clip-path="url(#clip182)" d="M1655.22 1461.72 L1643.91 1457.03 L1639.22 1445.72 L1643.91 1434.4 L1655.22 1429.72 L1666.53 1434.4 L1671.22 1445.72 L1666.53 1457.03 Z" fill="#000000" fill-rule="evenodd" fill-opacity="1" stroke="none"></path>
<path clip-path="url(#clip182)" d="M1232.47 918.62 L1221.15 913.932 L1216.47 902.62 L1221.15 891.308 L1232.47 886.62 L1243.78 891.308 L1248.47 902.62 L1243.78 913.932 Z" fill="#000000" fill-rule="evenodd" fill-opacity="1" stroke="none"></path>
<path clip-path="url(#clip182)" d="M1232.47 375.524 L1221.15 370.836 L1216.47 359.524 L1221.15 348.212 L1232.47 343.524 L1243.78 348.212 L1248.47 359.524 L1243.78 370.836 Z" fill="#000000" fill-rule="evenodd" fill-opacity="1" stroke="none"></path>
<path clip-path="url(#clip182)" d="M1443.84 103.976 L1432.53 99.2883 L1427.84 87.9763 L1432.53 76.6643 L1443.84 71.9763 L1455.15 76.6643 L1459.84 87.9763 L1455.15 99.2883 Z" fill="#000000" fill-rule="evenodd" fill-opacity="1" stroke="none"></path>
<path clip-path="url(#clip182)" d="M1866.59 375.524 L1855.28 370.836 L1850.59 359.524 L1855.28 348.212 L1866.59 343.524 L1877.9 348.212 L1882.59 359.524 L1877.9 370.836 Z" fill="#000000" fill-rule="evenodd" fill-opacity="1" stroke="none"></path>
<path clip-path="url(#clip182)" d="M2289.34 103.976 L2278.03 99.2883 L2273.34 87.9763 L2278.03 76.6643 L2289.34 71.9763 L2300.66 76.6643 L2305.34 87.9763 L2300.66 99.2883 Z" fill="#000000" fill-rule="evenodd" fill-opacity="1" stroke="none"></path>
<polyline clip-path="url(#clip182)" style="stroke:#ff0000; stroke-linecap:round; stroke-linejoin:round; stroke-width:0; stroke-opacity:1; fill:none" points="175.59,1445.72 1021.09,1083.65 1479.07,1309.94 1302.92,902.62 1267.7,404.782 1514.3,201.121 2289.34,87.9763 "></polyline>
<path clip-path="url(#clip182)" d="M175.59 1461.72 L164.278 1457.03 L159.59 1445.72 L164.278 1434.4 L175.59 1429.72 L186.902 1434.4 L191.59 1445.72 L186.902 1457.03 Z" fill="#ff0000" fill-rule="evenodd" fill-opacity="1" stroke="#000000" stroke-opacity="1" stroke-width="3.2"></path>
<path clip-path="url(#clip182)" d="M1021.09 1099.65 L1009.78 1094.96 L1005.09 1083.65 L1009.78 1072.34 L1021.09 1067.65 L1032.4 1072.34 L1037.09 1083.65 L1032.4 1094.96 Z" fill="#ff0000" fill-rule="evenodd" fill-opacity="1" stroke="#000000" stroke-opacity="1" stroke-width="3.2"></path>
<path clip-path="url(#clip182)" d="M1479.07 1325.94 L1467.76 1321.25 L1463.07 1309.94 L1467.76 1298.63 L1479.07 1293.94 L1490.38 1298.63 L1495.07 1309.94 L1490.38 1321.25 Z" fill="#ff0000" fill-rule="evenodd" fill-opacity="1" stroke="#000000" stroke-opacity="1" stroke-width="3.2"></path>
<path clip-path="url(#clip182)" d="M1302.92 918.62 L1291.61 913.932 L1286.92 902.62 L1291.61 891.308 L1302.92 886.62 L1314.24 891.308 L1318.92 902.62 L1314.24 913.932 Z" fill="#ff0000" fill-rule="evenodd" fill-opacity="1" stroke="#000000" stroke-opacity="1" stroke-width="3.2"></path>
<path clip-path="url(#clip182)" d="M1267.7 420.782 L1256.38 416.094 L1251.7 404.782 L1256.38 393.47 L1267.7 388.782 L1279.01 393.47 L1283.7 404.782 L1279.01 416.094 Z" fill="#ff0000" fill-rule="evenodd" fill-opacity="1" stroke="#000000" stroke-opacity="1" stroke-width="3.2"></path>
<path clip-path="url(#clip182)" d="M1514.3 217.121 L1502.99 212.433 L1498.3 201.121 L1502.99 189.809 L1514.3 185.121 L1525.61 189.809 L1530.3 201.121 L1525.61 212.433 Z" fill="#ff0000" fill-rule="evenodd" fill-opacity="1" stroke="#000000" stroke-opacity="1" stroke-width="3.2"></path>
<path clip-path="url(#clip182)" d="M2289.34 103.976 L2278.03 99.2883 L2273.34 87.9763 L2278.03 76.6643 L2289.34 71.9763 L2300.66 76.6643 L2305.34 87.9763 L2300.66 99.2883 Z" fill="#ff0000" fill-rule="evenodd" fill-opacity="1" stroke="#000000" stroke-opacity="1" stroke-width="3.2"></path>
<path clip-path="url(#clip180)" d="M186.863 302.578 L737.979 302.578 L737.979 95.2176 L186.863 95.2176  Z" fill="#ffffff" fill-rule="evenodd" fill-opacity="1"></path>
<polyline clip-path="url(#clip180)" style="stroke:#000000; stroke-linecap:round; stroke-linejoin:round; stroke-width:4; stroke-opacity:1; fill:none" points="186.863,302.578 737.979,302.578 737.979,95.2176 186.863,95.2176 186.863,302.578 "></polyline>
<polyline clip-path="url(#clip180)" style="stroke:#009af9; stroke-linecap:round; stroke-linejoin:round; stroke-width:16; stroke-opacity:1; fill:none" points="211.758,147.058 361.13,147.058 "></polyline>
<path clip-path="url(#clip180)" d="M386.026 129.778 L392.322 129.778 L407.646 158.689 L407.646 129.778 L412.183 129.778 L412.183 164.338 L405.887 164.338 L390.563 135.426 L390.563 164.338 L386.026 164.338 L386.026 129.778 Z" fill="#000000" fill-rule="nonzero" fill-opacity="1"></path><path clip-path="url(#clip180)" d="M420.956 129.778 L425.655 129.778 L425.655 150.773 Q425.655 156.328 427.669 158.782 Q429.683 161.213 434.197 161.213 Q438.687 161.213 440.701 158.782 Q442.715 156.328 442.715 150.773 L442.715 129.778 L447.414 129.778 L447.414 151.352 Q447.414 158.111 444.058 161.56 Q440.724 165.009 434.197 165.009 Q427.646 165.009 424.289 161.56 Q420.956 158.111 420.956 151.352 L420.956 129.778 Z" fill="#000000" fill-rule="nonzero" fill-opacity="1"></path><path clip-path="url(#clip180)" d="M472.576 148.134 Q474.081 148.643 475.493 150.31 Q476.928 151.977 478.363 154.893 L483.109 164.338 L478.085 164.338 L473.664 155.472 Q471.951 152 470.331 150.865 Q468.734 149.731 465.956 149.731 L460.863 149.731 L460.863 164.338 L456.187 164.338 L456.187 129.778 L466.743 129.778 Q472.669 129.778 475.585 132.254 Q478.502 134.731 478.502 139.731 Q478.502 142.995 476.974 145.148 Q475.47 147.301 472.576 148.134 M460.863 133.62 L460.863 145.889 L466.743 145.889 Q470.122 145.889 471.835 144.338 Q473.572 142.764 473.572 139.731 Q473.572 136.699 471.835 135.171 Q470.122 133.62 466.743 133.62 L460.863 133.62 Z" fill="#000000" fill-rule="nonzero" fill-opacity="1"></path><path clip-path="url(#clip180)" d="M493.803 147.833 L493.803 160.495 L501.303 160.495 Q505.076 160.495 506.882 158.944 Q508.71 157.37 508.71 154.152 Q508.71 150.912 506.882 149.384 Q505.076 147.833 501.303 147.833 L493.803 147.833 M493.803 133.62 L493.803 144.037 L500.724 144.037 Q504.15 144.037 505.817 142.764 Q507.507 141.467 507.507 138.828 Q507.507 136.213 505.817 134.916 Q504.15 133.62 500.724 133.62 L493.803 133.62 M489.127 129.778 L501.071 129.778 Q506.419 129.778 509.312 132 Q512.206 134.222 512.206 138.319 Q512.206 141.49 510.724 143.365 Q509.243 145.24 506.372 145.703 Q509.821 146.444 511.719 148.805 Q513.641 151.143 513.641 154.662 Q513.641 159.291 510.493 161.814 Q507.344 164.338 501.534 164.338 L489.127 164.338 L489.127 129.778 Z" fill="#000000" fill-rule="nonzero" fill-opacity="1"></path><path clip-path="url(#clip180)" d="M541.534 130.912 L541.534 135.472 Q538.872 134.199 536.511 133.574 Q534.15 132.949 531.951 132.949 Q528.131 132.949 526.048 134.43 Q523.988 135.912 523.988 138.643 Q523.988 140.935 525.354 142.115 Q526.743 143.273 530.585 143.99 L533.409 144.569 Q538.641 145.565 541.117 148.088 Q543.617 150.588 543.617 154.801 Q543.617 159.824 540.238 162.416 Q536.881 165.009 530.377 165.009 Q527.923 165.009 525.145 164.453 Q522.391 163.898 519.428 162.81 L519.428 157.995 Q522.275 159.592 525.006 160.402 Q527.738 161.213 530.377 161.213 Q534.381 161.213 536.557 159.639 Q538.733 158.064 538.733 155.148 Q538.733 152.602 537.159 151.166 Q535.608 149.731 532.043 149.014 L529.196 148.458 Q523.965 147.416 521.627 145.194 Q519.289 142.972 519.289 139.014 Q519.289 134.43 522.506 131.791 Q525.747 129.153 531.418 129.153 Q533.849 129.153 536.372 129.592 Q538.895 130.032 541.534 130.912 Z" fill="#000000" fill-rule="nonzero" fill-opacity="1"></path><polyline clip-path="url(#clip180)" style="stroke:#000000; stroke-linecap:round; stroke-linejoin:round; stroke-width:4; stroke-opacity:1; fill:none" points="211.758,198.898 361.13,198.898 "></polyline>
<path clip-path="url(#clip180)" d="M286.444 221.653 L270.356 214.986 L263.689 198.898 L270.356 182.809 L286.444 176.142 L302.533 182.809 L309.2 198.898 L302.533 214.986 Z" fill="#000000" fill-rule="evenodd" fill-opacity="1" stroke="none"></path>
<path clip-path="url(#clip180)" d="M413.896 184.28 L413.896 189.21 Q411.535 187.011 408.85 185.923 Q406.188 184.835 403.178 184.835 Q397.252 184.835 394.104 188.469 Q390.956 192.08 390.956 198.932 Q390.956 205.761 394.104 209.395 Q397.252 213.006 403.178 213.006 Q406.188 213.006 408.85 211.918 Q411.535 210.83 413.896 208.631 L413.896 213.516 Q411.442 215.182 408.688 216.016 Q405.956 216.849 402.901 216.849 Q395.053 216.849 390.54 212.057 Q386.026 207.242 386.026 198.932 Q386.026 190.599 390.54 185.807 Q395.053 180.993 402.901 180.993 Q406.002 180.993 408.734 181.826 Q411.489 182.636 413.896 184.28 Z" fill="#000000" fill-rule="nonzero" fill-opacity="1"></path><path clip-path="url(#clip180)" d="M430.979 193.238 Q427.553 193.238 425.563 195.923 Q423.572 198.585 423.572 203.238 Q423.572 207.891 425.539 210.576 Q427.53 213.238 430.979 213.238 Q434.382 213.238 436.373 210.553 Q438.363 207.867 438.363 203.238 Q438.363 198.631 436.373 195.946 Q434.382 193.238 430.979 193.238 M430.979 189.627 Q436.535 189.627 439.706 193.238 Q442.877 196.849 442.877 203.238 Q442.877 209.604 439.706 213.238 Q436.535 216.849 430.979 216.849 Q425.4 216.849 422.229 213.238 Q419.081 209.604 419.081 203.238 Q419.081 196.849 422.229 193.238 Q425.4 189.627 430.979 189.627 Z" fill="#000000" fill-rule="nonzero" fill-opacity="1"></path><path clip-path="url(#clip180)" d="M471.488 200.529 L471.488 216.178 L467.229 216.178 L467.229 200.668 Q467.229 196.988 465.794 195.159 Q464.359 193.33 461.488 193.33 Q458.039 193.33 456.048 195.53 Q454.058 197.729 454.058 201.525 L454.058 216.178 L449.775 216.178 L449.775 190.252 L454.058 190.252 L454.058 194.28 Q455.586 191.942 457.646 190.784 Q459.729 189.627 462.437 189.627 Q466.905 189.627 469.197 192.405 Q471.488 195.159 471.488 200.529 Z" fill="#000000" fill-rule="nonzero" fill-opacity="1"></path><path clip-path="url(#clip180)" d="M484.196 182.891 L484.196 190.252 L492.97 190.252 L492.97 193.562 L484.196 193.562 L484.196 207.636 Q484.196 210.807 485.053 211.71 Q485.933 212.613 488.595 212.613 L492.97 212.613 L492.97 216.178 L488.595 216.178 Q483.664 216.178 481.789 214.349 Q479.914 212.497 479.914 207.636 L479.914 193.562 L476.789 193.562 L476.789 190.252 L479.914 190.252 L479.914 182.891 L484.196 182.891 Z" fill="#000000" fill-rule="nonzero" fill-opacity="1"></path><path clip-path="url(#clip180)" d="M513.594 194.233 Q512.877 193.817 512.02 193.631 Q511.187 193.423 510.169 193.423 Q506.557 193.423 504.613 195.784 Q502.692 198.122 502.692 202.52 L502.692 216.178 L498.409 216.178 L498.409 190.252 L502.692 190.252 L502.692 194.28 Q504.034 191.918 506.187 190.784 Q508.34 189.627 511.419 189.627 Q511.858 189.627 512.391 189.696 Q512.923 189.743 513.571 189.858 L513.594 194.233 Z" fill="#000000" fill-rule="nonzero" fill-opacity="1"></path><path clip-path="url(#clip180)" d="M527.067 193.238 Q523.641 193.238 521.65 195.923 Q519.659 198.585 519.659 203.238 Q519.659 207.891 521.627 210.576 Q523.618 213.238 527.067 213.238 Q530.469 213.238 532.46 210.553 Q534.451 207.867 534.451 203.238 Q534.451 198.631 532.46 195.946 Q530.469 193.238 527.067 193.238 M527.067 189.627 Q532.622 189.627 535.793 193.238 Q538.965 196.849 538.965 203.238 Q538.965 209.604 535.793 213.238 Q532.622 216.849 527.067 216.849 Q521.488 216.849 518.317 213.238 Q515.169 209.604 515.169 203.238 Q515.169 196.849 518.317 193.238 Q521.488 189.627 527.067 189.627 Z" fill="#000000" fill-rule="nonzero" fill-opacity="1"></path><path clip-path="url(#clip180)" d="M546.025 180.159 L550.284 180.159 L550.284 216.178 L546.025 216.178 L546.025 180.159 Z" fill="#000000" fill-rule="nonzero" fill-opacity="1"></path><path clip-path="url(#clip180)" d="M578.386 212.289 L578.386 226.039 L574.103 226.039 L574.103 190.252 L578.386 190.252 L578.386 194.187 Q579.728 191.872 581.765 190.761 Q583.826 189.627 586.673 189.627 Q591.395 189.627 594.335 193.377 Q597.298 197.127 597.298 203.238 Q597.298 209.349 594.335 213.099 Q591.395 216.849 586.673 216.849 Q583.826 216.849 581.765 215.738 Q579.728 214.603 578.386 212.289 M592.876 203.238 Q592.876 198.539 590.932 195.877 Q589.011 193.192 585.631 193.192 Q582.251 193.192 580.307 195.877 Q578.386 198.539 578.386 203.238 Q578.386 207.937 580.307 210.622 Q582.251 213.284 585.631 213.284 Q589.011 213.284 590.932 210.622 Q592.876 207.937 592.876 203.238 Z" fill="#000000" fill-rule="nonzero" fill-opacity="1"></path><path clip-path="url(#clip180)" d="M614.404 193.238 Q610.978 193.238 608.987 195.923 Q606.997 198.585 606.997 203.238 Q606.997 207.891 608.964 210.576 Q610.955 213.238 614.404 213.238 Q617.807 213.238 619.798 210.553 Q621.788 207.867 621.788 203.238 Q621.788 198.631 619.798 195.946 Q617.807 193.238 614.404 193.238 M614.404 189.627 Q619.96 189.627 623.131 193.238 Q626.302 196.849 626.302 203.238 Q626.302 209.604 623.131 213.238 Q619.96 216.849 614.404 216.849 Q608.825 216.849 605.654 213.238 Q602.506 209.604 602.506 203.238 Q602.506 196.849 605.654 193.238 Q608.825 189.627 614.404 189.627 Z" fill="#000000" fill-rule="nonzero" fill-opacity="1"></path><path clip-path="url(#clip180)" d="M633.362 190.252 L637.622 190.252 L637.622 216.178 L633.362 216.178 L633.362 190.252 M633.362 180.159 L637.622 180.159 L637.622 185.553 L633.362 185.553 L633.362 180.159 Z" fill="#000000" fill-rule="nonzero" fill-opacity="1"></path><path clip-path="url(#clip180)" d="M668.084 200.529 L668.084 216.178 L663.825 216.178 L663.825 200.668 Q663.825 196.988 662.39 195.159 Q660.955 193.33 658.084 193.33 Q654.635 193.33 652.645 195.53 Q650.654 197.729 650.654 201.525 L650.654 216.178 L646.372 216.178 L646.372 190.252 L650.654 190.252 L650.654 194.28 Q652.182 191.942 654.242 190.784 Q656.325 189.627 659.033 189.627 Q663.501 189.627 665.793 192.405 Q668.084 195.159 668.084 200.529 Z" fill="#000000" fill-rule="nonzero" fill-opacity="1"></path><path clip-path="url(#clip180)" d="M680.793 182.891 L680.793 190.252 L689.566 190.252 L689.566 193.562 L680.793 193.562 L680.793 207.636 Q680.793 210.807 681.649 211.71 Q682.529 212.613 685.191 212.613 L689.566 212.613 L689.566 216.178 L685.191 216.178 Q680.26 216.178 678.385 214.349 Q676.51 212.497 676.51 207.636 L676.51 193.562 L673.385 193.562 L673.385 190.252 L676.51 190.252 L676.51 182.891 L680.793 182.891 Z" fill="#000000" fill-rule="nonzero" fill-opacity="1"></path><path clip-path="url(#clip180)" d="M711.695 191.016 L711.695 195.043 Q709.89 194.117 707.945 193.655 Q706.001 193.192 703.918 193.192 Q700.746 193.192 699.149 194.164 Q697.575 195.136 697.575 197.08 Q697.575 198.562 698.709 199.418 Q699.843 200.252 703.269 201.016 L704.728 201.34 Q709.265 202.312 711.163 204.094 Q713.084 205.854 713.084 209.025 Q713.084 212.636 710.214 214.742 Q707.367 216.849 702.367 216.849 Q700.283 216.849 698.015 216.432 Q695.769 216.039 693.269 215.228 L693.269 210.83 Q695.631 212.057 697.922 212.682 Q700.214 213.284 702.459 213.284 Q705.468 213.284 707.089 212.266 Q708.709 211.224 708.709 209.349 Q708.709 207.613 707.529 206.687 Q706.371 205.761 702.413 204.904 L700.931 204.557 Q696.973 203.724 695.214 202.011 Q693.455 200.275 693.455 197.266 Q693.455 193.608 696.047 191.618 Q698.64 189.627 703.408 189.627 Q705.769 189.627 707.853 189.974 Q709.936 190.321 711.695 191.016 Z" fill="#000000" fill-rule="nonzero" fill-opacity="1"></path><polyline clip-path="url(#clip180)" style="stroke:#ff0000; stroke-linecap:round; stroke-linejoin:round; stroke-width:0.8; stroke-opacity:1; fill:none" points="211.758,250.738 361.13,250.738 "></polyline>
<path clip-path="url(#clip180)" d="M286.444 273.493 L270.356 266.826 L263.689 250.738 L270.356 234.649 L286.444 227.982 L302.533 234.649 L309.2 250.738 L302.533 266.826 Z" fill="#ff0000" fill-rule="evenodd" fill-opacity="1" stroke="#000000" stroke-opacity="1" stroke-width="4.55111"></path>
<path clip-path="url(#clip180)" d="M386.026 231.999 L390.308 231.999 L390.308 253.272 L403.016 242.092 L408.456 242.092 L394.706 254.221 L409.035 268.018 L403.479 268.018 L390.308 255.356 L390.308 268.018 L386.026 268.018 L386.026 231.999 Z" fill="#000000" fill-rule="nonzero" fill-opacity="1"></path><path clip-path="url(#clip180)" d="M435.192 252.369 L435.192 268.018 L430.933 268.018 L430.933 252.508 Q430.933 248.828 429.498 246.999 Q428.062 245.17 425.192 245.17 Q421.743 245.17 419.752 247.37 Q417.762 249.569 417.762 253.365 L417.762 268.018 L413.479 268.018 L413.479 242.092 L417.762 242.092 L417.762 246.12 Q419.289 243.782 421.35 242.624 Q423.433 241.467 426.141 241.467 Q430.609 241.467 432.9 244.245 Q435.192 246.999 435.192 252.369 Z" fill="#000000" fill-rule="nonzero" fill-opacity="1"></path><path clip-path="url(#clip180)" d="M453.734 245.078 Q450.308 245.078 448.317 247.763 Q446.326 250.425 446.326 255.078 Q446.326 259.731 448.294 262.416 Q450.285 265.078 453.734 265.078 Q457.136 265.078 459.127 262.393 Q461.118 259.707 461.118 255.078 Q461.118 250.471 459.127 247.786 Q457.136 245.078 453.734 245.078 M453.734 241.467 Q459.289 241.467 462.46 245.078 Q465.632 248.689 465.632 255.078 Q465.632 261.444 462.46 265.078 Q459.289 268.689 453.734 268.689 Q448.155 268.689 444.984 265.078 Q441.836 261.444 441.836 255.078 Q441.836 248.689 444.984 245.078 Q448.155 241.467 453.734 241.467 Z" fill="#000000" fill-rule="nonzero" fill-opacity="1"></path><path clip-path="url(#clip180)" d="M476.905 234.731 L476.905 242.092 L485.678 242.092 L485.678 245.402 L476.905 245.402 L476.905 259.476 Q476.905 262.647 477.761 263.55 Q478.641 264.453 481.303 264.453 L485.678 264.453 L485.678 268.018 L481.303 268.018 Q476.372 268.018 474.497 266.189 Q472.622 264.337 472.622 259.476 L472.622 245.402 L469.497 245.402 L469.497 242.092 L472.622 242.092 L472.622 234.731 L476.905 234.731 Z" fill="#000000" fill-rule="nonzero" fill-opacity="1"></path><path clip-path="url(#clip180)" d="M507.807 242.856 L507.807 246.883 Q506.002 245.957 504.057 245.495 Q502.113 245.032 500.03 245.032 Q496.858 245.032 495.261 246.004 Q493.687 246.976 493.687 248.92 Q493.687 250.402 494.821 251.258 Q495.956 252.092 499.382 252.856 L500.84 253.18 Q505.377 254.152 507.275 255.934 Q509.196 257.694 509.196 260.865 Q509.196 264.476 506.326 266.582 Q503.479 268.689 498.479 268.689 Q496.395 268.689 494.127 268.272 Q491.882 267.879 489.382 267.068 L489.382 262.67 Q491.743 263.897 494.034 264.522 Q496.326 265.124 498.571 265.124 Q501.581 265.124 503.201 264.106 Q504.821 263.064 504.821 261.189 Q504.821 259.453 503.641 258.527 Q502.483 257.601 498.525 256.744 L497.044 256.397 Q493.085 255.564 491.326 253.851 Q489.567 252.115 489.567 249.106 Q489.567 245.448 492.159 243.458 Q494.752 241.467 499.52 241.467 Q501.882 241.467 503.965 241.814 Q506.048 242.161 507.807 242.856 Z" fill="#000000" fill-rule="nonzero" fill-opacity="1"></path></svg>